<mxfile host="Electron" modified="2024-03-03T15:04:46.120Z" agent="Mozilla/5.0 (Windows NT 10.0; Win64; x64) AppleWebKit/537.36 (KHTML, like Gecko) draw.io/23.1.5 Chrome/120.0.6099.109 Electron/28.1.0 Safari/537.36" etag="OVMi-IJO2xM_4-2AhHWc" version="23.1.5" type="device">
  <diagram name="Page-1" id="qvxfDQ4nsBVQeI58UyfF">
    <mxGraphModel dx="1674" dy="836" grid="1" gridSize="10" guides="1" tooltips="1" connect="1" arrows="1" fold="1" page="1" pageScale="1" pageWidth="850" pageHeight="1100" math="0" shadow="0">
      <root>
        <mxCell id="0" />
        <mxCell id="1" parent="0" />
        <mxCell id="0M5ZNUjyXzmaw6r4NHMo-1" value="&lt;div style=&quot;border-color: rgb(0, 0, 0); color: rgb(240, 240, 240); font-family: Helvetica; font-style: normal; font-variant-ligatures: normal; font-variant-caps: normal; letter-spacing: normal; orphans: 2; text-indent: 0px; text-transform: none; widows: 2; word-spacing: 0px; -webkit-text-stroke-width: 0px; background-color: rgb(27, 29, 30); text-decoration-thickness: initial; text-decoration-style: initial; text-decoration-color: initial; text-align: justify;&quot;&gt;&lt;font style=&quot;font-size: 12px;&quot;&gt;BEGIN PROGRAM&lt;/font&gt;&lt;/div&gt;&lt;div style=&quot;border-color: rgb(0, 0, 0); color: rgb(240, 240, 240); font-family: Helvetica; font-style: normal; font-variant-ligatures: normal; font-variant-caps: normal; letter-spacing: normal; orphans: 2; text-indent: 0px; text-transform: none; widows: 2; word-spacing: 0px; -webkit-text-stroke-width: 0px; background-color: rgb(27, 29, 30); text-decoration-thickness: initial; text-decoration-style: initial; text-decoration-color: initial; text-align: justify;&quot;&gt;&lt;font size=&quot;3&quot;&gt;At AccountRepository&lt;/font&gt;&lt;/div&gt;&lt;div style=&quot;border-color: rgb(0, 0, 0); color: rgb(240, 240, 240); font-family: Helvetica; font-style: normal; font-variant-ligatures: normal; font-variant-caps: normal; letter-spacing: normal; orphans: 2; text-indent: 0px; text-transform: none; widows: 2; word-spacing: 0px; -webkit-text-stroke-width: 0px; background-color: rgb(27, 29, 30); text-decoration-thickness: initial; text-decoration-style: initial; text-decoration-color: initial; text-align: justify;&quot;&gt;&lt;font size=&quot;3&quot;&gt;&amp;nbsp; &amp;nbsp; &amp;nbsp; &amp;nbsp; &amp;nbsp;Extend interface JpaRepository&lt;/font&gt;&lt;/div&gt;&lt;div style=&quot;border-color: rgb(0, 0, 0); color: rgb(240, 240, 240); font-family: Helvetica; font-style: normal; font-variant-ligatures: normal; font-variant-caps: normal; letter-spacing: normal; orphans: 2; text-indent: 0px; text-transform: none; widows: 2; word-spacing: 0px; -webkit-text-stroke-width: 0px; background-color: rgb(27, 29, 30); text-decoration-thickness: initial; text-decoration-style: initial; text-decoration-color: initial; text-align: justify;&quot;&gt;&lt;font size=&quot;3&quot;&gt;&amp;nbsp; &amp;nbsp; &amp;nbsp; &amp;nbsp; &amp;nbsp;Call method saveAccount(account) that has an account parameter of data type Account&lt;/font&gt;&lt;/div&gt;&lt;div style=&quot;border-color: rgb(0, 0, 0); color: rgb(240, 240, 240); font-family: Helvetica; font-style: normal; font-variant-ligatures: normal; font-variant-caps: normal; letter-spacing: normal; orphans: 2; text-indent: 0px; text-transform: none; widows: 2; word-spacing: 0px; -webkit-text-stroke-width: 0px; background-color: rgb(27, 29, 30); text-decoration-thickness: initial; text-decoration-style: initial; text-decoration-color: initial; text-align: justify;&quot;&gt;&lt;font size=&quot;3&quot;&gt;&amp;nbsp; &amp;nbsp; &amp;nbsp; &amp;nbsp; &amp;nbsp; Get database connection&amp;nbsp; &amp;nbsp;&lt;/font&gt;&lt;/div&gt;&lt;div style=&quot;border-color: rgb(0, 0, 0); color: rgb(240, 240, 240); font-family: Helvetica; font-style: normal; font-variant-ligatures: normal; font-variant-caps: normal; letter-spacing: normal; orphans: 2; text-indent: 0px; text-transform: none; widows: 2; word-spacing: 0px; -webkit-text-stroke-width: 0px; background-color: rgb(27, 29, 30); text-decoration-thickness: initial; text-decoration-style: initial; text-decoration-color: initial; text-align: justify;&quot;&gt;&lt;div style=&quot;border-color: rgb(0, 0, 0);&quot;&gt;&lt;div&gt;&lt;font size=&quot;3&quot;&gt;UPDATE Account&lt;/font&gt;&lt;/div&gt;&lt;div&gt;&lt;font size=&quot;3&quot;&gt;SET&amp;nbsp;&lt;/font&gt;&lt;/div&gt;&lt;div&gt;&lt;font size=&quot;3&quot;&gt;&amp;nbsp; &amp;nbsp; Phone_Number = &#39;new_phone_number&#39;,&lt;/font&gt;&lt;/div&gt;&lt;div&gt;&lt;font size=&quot;3&quot;&gt;&amp;nbsp; &amp;nbsp; Address = &#39;new_address&#39;,&lt;/font&gt;&lt;/div&gt;&lt;div&gt;&lt;font size=&quot;3&quot;&gt;&amp;nbsp; &amp;nbsp; Gender = &#39;new_gender&#39;,&lt;/font&gt;&lt;/div&gt;&lt;div&gt;&lt;font size=&quot;3&quot;&gt;&amp;nbsp; &amp;nbsp; Password = &#39;new_password&#39;,&lt;/font&gt;&lt;/div&gt;&lt;div&gt;&lt;font size=&quot;3&quot;&gt;&amp;nbsp; &amp;nbsp; Facebook_Id = &#39;new_facebook_id&#39;,&lt;/font&gt;&lt;/div&gt;&lt;div&gt;&lt;font size=&quot;3&quot;&gt;&amp;nbsp; &amp;nbsp; Google_Id = &#39;new_google_id&#39;,&lt;/font&gt;&lt;span style=&quot;font-size: medium;&quot;&gt;&amp;nbsp; &amp;nbsp;Number_Id = &#39;new_number_id&#39;,&lt;/span&gt;&lt;/div&gt;&lt;div&gt;&lt;font size=&quot;3&quot;&gt;&amp;nbsp; &amp;nbsp; Profilepic = &#39;new_profilepic&#39;,&lt;/font&gt;&lt;/div&gt;&lt;div&gt;&lt;font size=&quot;3&quot;&gt;&amp;nbsp; &amp;nbsp; Email = &#39;new_email&#39;,&lt;/font&gt;&lt;/div&gt;&lt;div&gt;&lt;font size=&quot;3&quot;&gt;&amp;nbsp; &amp;nbsp; Point = &#39;new_point&#39;,&lt;/font&gt;&lt;/div&gt;&lt;div&gt;&lt;font size=&quot;3&quot;&gt;&amp;nbsp;WHERE id = id;&lt;/font&gt;&lt;/div&gt;&lt;/div&gt;&lt;/div&gt;&lt;div style=&quot;border-color: rgb(0, 0, 0); color: rgb(240, 240, 240); font-family: Helvetica; font-style: normal; font-variant-ligatures: normal; font-variant-caps: normal; letter-spacing: normal; orphans: 2; text-indent: 0px; text-transform: none; widows: 2; word-spacing: 0px; -webkit-text-stroke-width: 0px; background-color: rgb(27, 29, 30); text-decoration-thickness: initial; text-decoration-style: initial; text-decoration-color: initial; text-align: justify;&quot;&gt;&lt;font size=&quot;3&quot;&gt;&amp;nbsp; &amp;nbsp; &amp;nbsp; &amp;nbsp; &amp;nbsp; Execute SQL&lt;/font&gt;&lt;/div&gt;&lt;div style=&quot;border-color: rgb(0, 0, 0); color: rgb(240, 240, 240); font-family: Helvetica; font-style: normal; font-variant-ligatures: normal; font-variant-caps: normal; letter-spacing: normal; orphans: 2; text-indent: 0px; text-transform: none; widows: 2; word-spacing: 0px; -webkit-text-stroke-width: 0px; background-color: rgb(27, 29, 30); text-decoration-thickness: initial; text-decoration-style: initial; text-decoration-color: initial; text-align: justify;&quot;&gt;&lt;font size=&quot;3&quot;&gt;&amp;nbsp; &amp;nbsp; &amp;nbsp; &amp;nbsp; &amp;nbsp; Close database connection&lt;/font&gt;&lt;/div&gt;&lt;div style=&quot;border-color: rgb(0, 0, 0); color: rgb(240, 240, 240); font-family: Helvetica; font-style: normal; font-variant-ligatures: normal; font-variant-caps: normal; letter-spacing: normal; orphans: 2; text-indent: 0px; text-transform: none; widows: 2; word-spacing: 0px; -webkit-text-stroke-width: 0px; background-color: rgb(27, 29, 30); text-decoration-thickness: initial; text-decoration-style: initial; text-decoration-color: initial; text-align: justify;&quot;&gt;&lt;font size=&quot;3&quot;&gt;At IAccountService&amp;nbsp;&lt;/font&gt;&lt;/div&gt;&lt;div style=&quot;border-color: rgb(0, 0, 0); color: rgb(240, 240, 240); font-family: Helvetica; font-style: normal; font-variant-ligatures: normal; font-variant-caps: normal; letter-spacing: normal; orphans: 2; text-indent: 0px; text-transform: none; widows: 2; word-spacing: 0px; -webkit-text-stroke-width: 0px; background-color: rgb(27, 29, 30); text-decoration-thickness: initial; text-decoration-style: initial; text-decoration-color: initial; text-align: justify;&quot;&gt;&lt;font size=&quot;3&quot;&gt;&amp;nbsp; &amp;nbsp; Declare method save(account) that has an account parameter of data type Account&lt;span style=&quot;&quot;&gt;&lt;span style=&quot;white-space: pre;&quot;&gt;&amp;nbsp;&amp;nbsp;&amp;nbsp;&amp;nbsp;&lt;/span&gt;&lt;/span&gt;&lt;/font&gt;&lt;/div&gt;&lt;div style=&quot;border-color: rgb(0, 0, 0); color: rgb(240, 240, 240); font-family: Helvetica; font-style: normal; font-variant-ligatures: normal; font-variant-caps: normal; letter-spacing: normal; orphans: 2; text-indent: 0px; text-transform: none; widows: 2; word-spacing: 0px; -webkit-text-stroke-width: 0px; background-color: rgb(27, 29, 30); text-decoration-thickness: initial; text-decoration-style: initial; text-decoration-color: initial; text-align: justify;&quot;&gt;&lt;font size=&quot;3&quot;&gt;At AccountServiceImpl&amp;nbsp;&lt;/font&gt;&lt;/div&gt;&lt;div style=&quot;border-color: rgb(0, 0, 0); color: rgb(240, 240, 240); font-family: Helvetica; font-style: normal; font-variant-ligatures: normal; font-variant-caps: normal; letter-spacing: normal; orphans: 2; text-indent: 0px; text-transform: none; widows: 2; word-spacing: 0px; -webkit-text-stroke-width: 0px; background-color: rgb(27, 29, 30); text-decoration-thickness: initial; text-decoration-style: initial; text-decoration-color: initial; text-align: justify;&quot;&gt;&lt;font size=&quot;3&quot;&gt;&amp;nbsp; &amp;nbsp;Implement interface IAccountService&lt;/font&gt;&lt;/div&gt;&lt;div style=&quot;border-color: rgb(0, 0, 0); color: rgb(240, 240, 240); font-family: Helvetica; font-style: normal; font-variant-ligatures: normal; font-variant-caps: normal; letter-spacing: normal; orphans: 2; text-indent: 0px; text-transform: none; widows: 2; word-spacing: 0px; -webkit-text-stroke-width: 0px; background-color: rgb(27, 29, 30); text-decoration-thickness: initial; text-decoration-style: initial; text-decoration-color: initial; text-align: justify;&quot;&gt;&lt;font size=&quot;3&quot;&gt;&amp;nbsp; &amp;nbsp;Inject accountRepository that data type is AccountRepository&lt;/font&gt;&lt;/div&gt;&lt;div style=&quot;border-color: rgb(0, 0, 0); color: rgb(240, 240, 240); font-family: Helvetica; font-style: normal; font-variant-ligatures: normal; font-variant-caps: normal; letter-spacing: normal; orphans: 2; text-indent: 0px; text-transform: none; widows: 2; word-spacing: 0px; -webkit-text-stroke-width: 0px; background-color: rgb(27, 29, 30); text-decoration-thickness: initial; text-decoration-style: initial; text-decoration-color: initial; text-align: justify;&quot;&gt;&lt;font size=&quot;3&quot;&gt;&amp;nbsp; &amp;nbsp;Call method save(account) that has an account parameter of data type Account&amp;nbsp;&lt;/font&gt;&lt;/div&gt;&lt;div style=&quot;border-color: rgb(0, 0, 0); color: rgb(240, 240, 240); font-family: Helvetica; font-style: normal; font-variant-ligatures: normal; font-variant-caps: normal; letter-spacing: normal; orphans: 2; text-indent: 0px; text-transform: none; widows: 2; word-spacing: 0px; -webkit-text-stroke-width: 0px; background-color: rgb(27, 29, 30); text-decoration-thickness: initial; text-decoration-style: initial; text-decoration-color: initial; text-align: justify;&quot;&gt;&lt;font size=&quot;3&quot;&gt;&amp;nbsp; &amp;nbsp; &amp;nbsp; &amp;nbsp;Call method save(account) of accountRepository instance . This method has an account parameter of data type of Account&lt;/font&gt;&lt;/div&gt;&lt;div style=&quot;border-color: rgb(0, 0, 0); color: rgb(240, 240, 240); font-family: Helvetica; font-style: normal; font-variant-ligatures: normal; font-variant-caps: normal; letter-spacing: normal; orphans: 2; text-indent: 0px; text-transform: none; widows: 2; word-spacing: 0px; -webkit-text-stroke-width: 0px; background-color: rgb(27, 29, 30); text-decoration-thickness: initial; text-decoration-style: initial; text-decoration-color: initial; text-align: justify;&quot;&gt;&lt;font size=&quot;3&quot;&gt;At AccountController&lt;/font&gt;&lt;/div&gt;&lt;div style=&quot;border-color: rgb(0, 0, 0); color: rgb(240, 240, 240); font-family: Helvetica; font-style: normal; font-variant-ligatures: normal; font-variant-caps: normal; letter-spacing: normal; orphans: 2; text-indent: 0px; text-transform: none; widows: 2; word-spacing: 0px; -webkit-text-stroke-width: 0px; background-color: rgb(27, 29, 30); text-decoration-thickness: initial; text-decoration-style: initial; text-decoration-color: initial; text-align: justify;&quot;&gt;&lt;font size=&quot;3&quot;&gt;&amp;nbsp; &amp;nbsp; &amp;nbsp; &amp;nbsp;Inject accountService that data type is IAccountService&lt;/font&gt;&lt;/div&gt;&lt;div style=&quot;border-color: rgb(0, 0, 0); color: rgb(240, 240, 240); font-family: Helvetica; font-style: normal; font-variant-ligatures: normal; font-variant-caps: normal; letter-spacing: normal; orphans: 2; text-indent: 0px; text-transform: none; widows: 2; word-spacing: 0px; -webkit-text-stroke-width: 0px; background-color: rgb(27, 29, 30); text-decoration-thickness: initial; text-decoration-style: initial; text-decoration-color: initial; text-align: justify;&quot;&gt;&lt;font size=&quot;3&quot;&gt;&amp;nbsp; &amp;nbsp; &amp;nbsp; &amp;nbsp;Call method saveAccount(id) that has an account parameter of data type Account&lt;/font&gt;&lt;/div&gt;&lt;div style=&quot;border-color: rgb(0, 0, 0); color: rgb(240, 240, 240); font-family: Helvetica; font-style: normal; font-variant-ligatures: normal; font-variant-caps: normal; letter-spacing: normal; orphans: 2; text-indent: 0px; text-transform: none; widows: 2; word-spacing: 0px; -webkit-text-stroke-width: 0px; background-color: rgb(27, 29, 30); text-decoration-thickness: initial; text-decoration-style: initial; text-decoration-color: initial; text-align: justify;&quot;&gt;&lt;font size=&quot;3&quot;&gt;&amp;nbsp; &amp;nbsp; &amp;nbsp; &amp;nbsp;Call method save(account) of accountService instance. This method has an account parameter of data type Account&amp;nbsp;&lt;/font&gt;&lt;/div&gt;&lt;div style=&quot;border-color: rgb(0, 0, 0); color: rgb(240, 240, 240); font-family: Helvetica; font-style: normal; font-variant-ligatures: normal; font-variant-caps: normal; letter-spacing: normal; orphans: 2; text-indent: 0px; text-transform: none; widows: 2; word-spacing: 0px; -webkit-text-stroke-width: 0px; background-color: rgb(27, 29, 30); text-decoration-thickness: initial; text-decoration-style: initial; text-decoration-color: initial; text-align: justify;&quot;&gt;&lt;font size=&quot;3&quot;&gt;&amp;nbsp; &amp;nbsp; &amp;nbsp; &amp;nbsp; &amp;nbsp;if account not null&lt;/font&gt;&lt;/div&gt;&lt;font size=&quot;3&quot;&gt;copyProperty accountDto to account then&amp;nbsp;&lt;span style=&quot;text-align: justify; background-color: initial;&quot;&gt;call method save(account) and status code OK&lt;/span&gt;&lt;/font&gt;&lt;div style=&quot;border-color: rgb(0, 0, 0); color: rgb(240, 240, 240); font-family: Helvetica; font-style: normal; font-variant-ligatures: normal; font-variant-caps: normal; letter-spacing: normal; orphans: 2; text-indent: 0px; text-transform: none; widows: 2; word-spacing: 0px; -webkit-text-stroke-width: 0px; background-color: rgb(27, 29, 30); text-decoration-thickness: initial; text-decoration-style: initial; text-decoration-color: initial; text-align: justify;&quot;&gt;&lt;font size=&quot;3&quot;&gt;&amp;nbsp; &amp;nbsp; &amp;nbsp; &amp;nbsp; else display message not exits status code NOT_FOUND&lt;/font&gt;&lt;/div&gt;&lt;div style=&quot;border-color: rgb(0, 0, 0); color: rgb(240, 240, 240); font-family: Helvetica; font-style: normal; font-variant-ligatures: normal; font-variant-caps: normal; letter-spacing: normal; orphans: 2; text-indent: 0px; text-transform: none; widows: 2; word-spacing: 0px; -webkit-text-stroke-width: 0px; background-color: rgb(27, 29, 30); text-decoration-thickness: initial; text-decoration-style: initial; text-decoration-color: initial; text-align: justify;&quot;&gt;&lt;font size=&quot;3&quot;&gt;END PROGRAM&lt;/font&gt;&lt;/div&gt;&lt;div style=&quot;border-color: rgb(0, 0, 0); color: rgb(240, 240, 240); font-family: Helvetica; font-style: normal; font-variant-ligatures: normal; font-variant-caps: normal; letter-spacing: normal; orphans: 2; text-indent: 0px; text-transform: none; widows: 2; word-spacing: 0px; -webkit-text-stroke-width: 0px; background-color: rgb(27, 29, 30); text-decoration-thickness: initial; text-decoration-style: initial; text-decoration-color: initial; text-align: justify;&quot;&gt;&lt;font size=&quot;3&quot;&gt;&amp;nbsp; &amp;nbsp; &amp;nbsp; &amp;nbsp;&lt;/font&gt;&lt;/div&gt;" style="text;whiteSpace=wrap;html=1;" parent="1" vertex="1">
          <mxGeometry x="1130" y="410" width="560" height="560" as="geometry" />
        </mxCell>
        <mxCell id="esCGMjhMR_f1ZKcurnIp-2" value="&lt;div style=&quot;border-color: rgb(0, 0, 0); background-color: rgb(27, 29, 30); text-align: justify;&quot;&gt;&lt;font color=&quot;#ffffff&quot; style=&quot;border-color: var(--border-color);&quot;&gt;BEGIN PROGRAM&lt;/font&gt;&lt;/div&gt;&lt;div style=&quot;border-color: rgb(0, 0, 0); background-color: rgb(27, 29, 30); text-align: justify;&quot;&gt;&lt;font color=&quot;#ffffff&quot; style=&quot;border-color: var(--border-color);&quot; size=&quot;3&quot;&gt;At AccountRepository&lt;/font&gt;&lt;/div&gt;&lt;div style=&quot;border-color: rgb(0, 0, 0); background-color: rgb(27, 29, 30); text-align: justify;&quot;&gt;&lt;font color=&quot;#ffffff&quot; style=&quot;border-color: var(--border-color);&quot; size=&quot;3&quot;&gt;&amp;nbsp; &amp;nbsp; &amp;nbsp; &amp;nbsp; &amp;nbsp;Extend interface JpaRepository&lt;/font&gt;&lt;/div&gt;&lt;div style=&quot;border-color: rgb(0, 0, 0); background-color: rgb(27, 29, 30); text-align: justify;&quot;&gt;&lt;font color=&quot;#ffffff&quot; style=&quot;border-color: var(--border-color);&quot; size=&quot;3&quot;&gt;&amp;nbsp; &amp;nbsp; &amp;nbsp; &amp;nbsp; &amp;nbsp;Call method saveAccount(account) that has an account parameter of data type Account&lt;/font&gt;&lt;/div&gt;&lt;div style=&quot;border-color: rgb(0, 0, 0); background-color: rgb(27, 29, 30); text-align: justify;&quot;&gt;&lt;font color=&quot;#ffffff&quot; style=&quot;border-color: var(--border-color);&quot; size=&quot;3&quot;&gt;&amp;nbsp; &amp;nbsp; &amp;nbsp; &amp;nbsp; &amp;nbsp; Get database connection&amp;nbsp; &amp;nbsp;&lt;/font&gt;&lt;/div&gt;&lt;div style=&quot;border-color: rgb(0, 0, 0); background-color: rgb(27, 29, 30); text-align: justify;&quot;&gt;&lt;div style=&quot;border-color: rgb(0, 0, 0);&quot;&gt;&lt;div style=&quot;border-color: var(--border-color);&quot;&gt;&lt;font color=&quot;#ffffff&quot; style=&quot;border-color: var(--border-color);&quot; size=&quot;3&quot;&gt;UPDATE Account&lt;/font&gt;&lt;/div&gt;&lt;div style=&quot;border-color: var(--border-color);&quot;&gt;&lt;font color=&quot;#ffffff&quot; style=&quot;border-color: var(--border-color);&quot; size=&quot;3&quot;&gt;SET&amp;nbsp;&lt;/font&gt;&lt;/div&gt;&lt;div style=&quot;border-color: var(--border-color);&quot;&gt;&lt;font color=&quot;#ffffff&quot; style=&quot;border-color: var(--border-color);&quot; size=&quot;3&quot;&gt;&amp;nbsp; &amp;nbsp; Phone_Number = &#39;new_phone_number&#39;,&lt;/font&gt;&lt;/div&gt;&lt;div style=&quot;border-color: var(--border-color);&quot;&gt;&lt;font color=&quot;#ffffff&quot; style=&quot;border-color: var(--border-color);&quot; size=&quot;3&quot;&gt;&amp;nbsp; &amp;nbsp; Address = &#39;new_address&#39;,&lt;/font&gt;&lt;/div&gt;&lt;div style=&quot;border-color: var(--border-color);&quot;&gt;&lt;font color=&quot;#ffffff&quot; style=&quot;border-color: var(--border-color);&quot; size=&quot;3&quot;&gt;&amp;nbsp; &amp;nbsp; Gender = &#39;new_gender&#39;,&lt;/font&gt;&lt;/div&gt;&lt;div style=&quot;border-color: var(--border-color);&quot;&gt;&lt;font color=&quot;#ffffff&quot; style=&quot;border-color: var(--border-color);&quot; size=&quot;3&quot;&gt;&amp;nbsp; &amp;nbsp; Password = &#39;new_password&#39;,&lt;/font&gt;&lt;/div&gt;&lt;div style=&quot;border-color: var(--border-color);&quot;&gt;&lt;font color=&quot;#ffffff&quot; style=&quot;border-color: var(--border-color);&quot; size=&quot;3&quot;&gt;&amp;nbsp; &amp;nbsp; Facebook_Id = &#39;new_facebook_id&#39;,&lt;/font&gt;&lt;/div&gt;&lt;div style=&quot;border-color: var(--border-color);&quot;&gt;&lt;font color=&quot;#ffffff&quot; style=&quot;border-color: var(--border-color);&quot; size=&quot;3&quot;&gt;&amp;nbsp; &amp;nbsp; Google_Id = &#39;new_google_id&#39;,&lt;/font&gt;&lt;/div&gt;&lt;div style=&quot;border-color: var(--border-color);&quot;&gt;&lt;font color=&quot;#ffffff&quot; style=&quot;border-color: var(--border-color);&quot; size=&quot;3&quot;&gt;&amp;nbsp; &amp;nbsp; Number_Id = &#39;new_number_id&#39;,&lt;/font&gt;&lt;/div&gt;&lt;div style=&quot;border-color: var(--border-color);&quot;&gt;&lt;font color=&quot;#ffffff&quot; style=&quot;border-color: var(--border-color);&quot; size=&quot;3&quot;&gt;&amp;nbsp; &amp;nbsp; Profilepic = &#39;new_profilepic&#39;,&lt;/font&gt;&lt;/div&gt;&lt;div style=&quot;border-color: var(--border-color);&quot;&gt;&lt;font color=&quot;#ffffff&quot; style=&quot;border-color: var(--border-color);&quot; size=&quot;3&quot;&gt;&amp;nbsp; &amp;nbsp; Email = &#39;new_email&#39;,&lt;/font&gt;&lt;/div&gt;&lt;div style=&quot;border-color: var(--border-color);&quot;&gt;&lt;font color=&quot;#ffffff&quot; style=&quot;border-color: var(--border-color);&quot; size=&quot;3&quot;&gt;&amp;nbsp; &amp;nbsp; Point = &#39;new_point&#39;,&lt;/font&gt;&lt;/div&gt;&lt;div style=&quot;border-color: var(--border-color);&quot;&gt;&lt;font color=&quot;#ffffff&quot; style=&quot;border-color: var(--border-color);&quot; size=&quot;3&quot;&gt;&amp;nbsp;WHERE id = id;&lt;/font&gt;&lt;/div&gt;&lt;/div&gt;&lt;/div&gt;&lt;div style=&quot;border-color: rgb(0, 0, 0); background-color: rgb(27, 29, 30); text-align: justify;&quot;&gt;&lt;font color=&quot;#ffffff&quot; style=&quot;border-color: var(--border-color);&quot; size=&quot;3&quot;&gt;&amp;nbsp; &amp;nbsp; &amp;nbsp; &amp;nbsp; &amp;nbsp; Execute SQL&lt;/font&gt;&lt;/div&gt;&lt;div style=&quot;border-color: rgb(0, 0, 0); background-color: rgb(27, 29, 30); text-align: justify;&quot;&gt;&lt;font color=&quot;#ffffff&quot; style=&quot;border-color: var(--border-color);&quot; size=&quot;3&quot;&gt;&amp;nbsp; &amp;nbsp; &amp;nbsp; &amp;nbsp; &amp;nbsp; Close database connection&lt;/font&gt;&lt;/div&gt;&lt;div style=&quot;border-color: rgb(0, 0, 0); background-color: rgb(27, 29, 30); text-align: justify;&quot;&gt;&lt;font color=&quot;#ffffff&quot; style=&quot;border-color: var(--border-color);&quot; size=&quot;3&quot;&gt;At IAccountService&amp;nbsp;&lt;/font&gt;&lt;/div&gt;&lt;div style=&quot;border-color: rgb(0, 0, 0); background-color: rgb(27, 29, 30); text-align: justify;&quot;&gt;&lt;font color=&quot;#ffffff&quot; style=&quot;border-color: var(--border-color);&quot; size=&quot;3&quot;&gt;&amp;nbsp; &amp;nbsp; Declare method save(account) that has an account parameter of data type Account&lt;span style=&quot;border-color: var(--border-color);&quot;&gt;&lt;/span&gt;&lt;/font&gt;&lt;/div&gt;&lt;div style=&quot;border-color: rgb(0, 0, 0); background-color: rgb(27, 29, 30); text-align: justify;&quot;&gt;&lt;font color=&quot;#ffffff&quot; style=&quot;border-color: var(--border-color);&quot; size=&quot;3&quot;&gt;At AccountServiceImpl&amp;nbsp;&lt;/font&gt;&lt;/div&gt;&lt;div style=&quot;border-color: rgb(0, 0, 0); background-color: rgb(27, 29, 30); text-align: justify;&quot;&gt;&lt;font color=&quot;#ffffff&quot; style=&quot;border-color: var(--border-color);&quot; size=&quot;3&quot;&gt;&amp;nbsp; &amp;nbsp;Implement interface IAccountService&lt;/font&gt;&lt;/div&gt;&lt;div style=&quot;border-color: rgb(0, 0, 0); background-color: rgb(27, 29, 30); text-align: justify;&quot;&gt;&lt;font color=&quot;#ffffff&quot; style=&quot;border-color: var(--border-color);&quot; size=&quot;3&quot;&gt;&amp;nbsp; &amp;nbsp;Inject accountRepository that data type is AccountRepository&lt;/font&gt;&lt;/div&gt;&lt;div style=&quot;border-color: rgb(0, 0, 0); background-color: rgb(27, 29, 30); text-align: justify;&quot;&gt;&lt;font color=&quot;#ffffff&quot; style=&quot;border-color: var(--border-color);&quot; size=&quot;3&quot;&gt;&amp;nbsp; &amp;nbsp;Call method save(account) that has an account parameter of data type Account&amp;nbsp;&lt;/font&gt;&lt;/div&gt;&lt;div style=&quot;border-color: rgb(0, 0, 0); background-color: rgb(27, 29, 30); text-align: justify;&quot;&gt;&lt;font color=&quot;#ffffff&quot; style=&quot;border-color: var(--border-color);&quot; size=&quot;3&quot;&gt;&amp;nbsp; &amp;nbsp; &amp;nbsp; &amp;nbsp;Call method save(account) of accountRepository instance . This method has an account parameter of data type of Account&lt;/font&gt;&lt;/div&gt;&lt;div style=&quot;border-color: rgb(0, 0, 0); background-color: rgb(27, 29, 30); text-align: justify;&quot;&gt;&lt;font color=&quot;#ffffff&quot; style=&quot;border-color: var(--border-color);&quot; size=&quot;3&quot;&gt;At AccountController&lt;/font&gt;&lt;/div&gt;&lt;div style=&quot;border-color: rgb(0, 0, 0); background-color: rgb(27, 29, 30); text-align: justify;&quot;&gt;&lt;font color=&quot;#ffffff&quot; style=&quot;border-color: var(--border-color);&quot; size=&quot;3&quot;&gt;&amp;nbsp; &amp;nbsp; &amp;nbsp; &amp;nbsp;Inject accountService that data type is IAccountService&lt;/font&gt;&lt;/div&gt;&lt;div style=&quot;border-color: rgb(0, 0, 0); background-color: rgb(27, 29, 30); text-align: justify;&quot;&gt;&lt;font color=&quot;#ffffff&quot; style=&quot;border-color: var(--border-color);&quot; size=&quot;3&quot;&gt;&amp;nbsp; &amp;nbsp; &amp;nbsp; &amp;nbsp;Call method saveAccount(id) that has an account parameter of data type Account&lt;/font&gt;&lt;/div&gt;&lt;div style=&quot;border-color: rgb(0, 0, 0); background-color: rgb(27, 29, 30); text-align: justify;&quot;&gt;&lt;font color=&quot;#ffffff&quot; style=&quot;border-color: var(--border-color);&quot; size=&quot;3&quot;&gt;&amp;nbsp; &amp;nbsp; &amp;nbsp; &amp;nbsp;Call method save(account) of accountService instance. This method has an account parameter of data type Account&amp;nbsp;&lt;/font&gt;&lt;/div&gt;&lt;div style=&quot;border-color: rgb(0, 0, 0); background-color: rgb(27, 29, 30); text-align: justify;&quot;&gt;&lt;font color=&quot;#ffffff&quot; style=&quot;border-color: var(--border-color);&quot; size=&quot;3&quot;&gt;&amp;nbsp; &amp;nbsp; &amp;nbsp; &amp;nbsp; &amp;nbsp;if account not null&lt;/font&gt;&lt;/div&gt;&lt;font color=&quot;#ffffff&quot; style=&quot;border-color: var(--border-color); text-align: left;&quot; size=&quot;3&quot;&gt;&lt;div style=&quot;text-align: justify;&quot;&gt;&lt;span style=&quot;background-color: initial;&quot;&gt;copyProperty accountDto to account then&amp;nbsp;&lt;/span&gt;&lt;span style=&quot;background-color: initial; border-color: var(--border-color); text-align: justify;&quot;&gt;call method save(account) and status code OK&lt;/span&gt;&lt;/div&gt;&lt;/font&gt;&lt;div style=&quot;border-color: rgb(0, 0, 0); background-color: rgb(27, 29, 30); text-align: justify;&quot;&gt;&lt;font color=&quot;#ffffff&quot; style=&quot;border-color: var(--border-color);&quot; size=&quot;3&quot;&gt;&amp;nbsp; &amp;nbsp; &amp;nbsp; &amp;nbsp; else display message not exits status code NOT_FOUND&lt;/font&gt;&lt;/div&gt;&lt;div style=&quot;border-color: rgb(0, 0, 0); background-color: rgb(27, 29, 30); text-align: justify;&quot;&gt;&lt;font color=&quot;#ffffff&quot; style=&quot;border-color: var(--border-color);&quot; size=&quot;3&quot;&gt;END PROGRAM&lt;/font&gt;&lt;/div&gt;&lt;div style=&quot;border-color: rgb(0, 0, 0); background-color: rgb(27, 29, 30); text-align: justify;&quot;&gt;&lt;font color=&quot;#ffffff&quot; style=&quot;border-color: var(--border-color);&quot; size=&quot;3&quot;&gt;&amp;nbsp; &amp;nbsp; &amp;nbsp; &amp;nbsp;&lt;/font&gt;&lt;/div&gt;" style="text;html=1;align=center;verticalAlign=middle;whiteSpace=wrap;rounded=0;" vertex="1" parent="1">
          <mxGeometry x="90" y="350" width="690" height="680" as="geometry" />
        </mxCell>
      </root>
    </mxGraphModel>
  </diagram>
</mxfile>
